<?xml version="1.0"?>
<svg xmlns:rdf="http://www.w3.org/1999/02/22-rdf-syntax-ns#" xmlns="http://www.w3.org/2000/svg" xmlns:cc="http://creativecommons.org/ns#" xmlns:dc="http://purl.org/dc/elements/1.1/" xmlns:svg="http://www.w3.org/2000/svg" id="svg2" viewBox="0 0 882.87 820.24" version="1.1">
  <g id="layer1" transform="translate(91.376 -88.063)">
    <rect id="rect3867" ry="21.626" rx="21.626" transform="translate(-52.99 102.78)" height="820.24" width="882.87" y="-14.719" x="-38.386" fill="#fff"/>
    <g id="g3843" transform="matrix(2.7056 0 0 2.7056 -593.98 -831.24)">
      <path id="path3052" d="m254.95 622c58.798-114.59 56.665-123.93 97.908-116.07l0.00001-27.143c-7.758-3.0826-20.778-1.1196-28.571 0.71429 2.1726-26.14 3.0239-44.972 12.857-68.571l-6.4286-65.714 35 31.429 60 2.1428 26.429-22.857-1.4286 42.143c4.6236 31.943 1.2853 63.721-0.71429 95.714-7.2367-5.2984-18.151-10.786-26.429-9.2857l2.1429 23.571c47.366 10.988 34.305 47.728 27.511 114.33z"/>
      <path id="path3054" fill="#a6b28a" d="m355.16 426.06c-0.12 0.68-0.16 1.38-0.16 2.1 0 5.57 3.5512 10.094 7.9375 10.094s7.9375-4.5237 7.9375-10.094c0-0.94277-0.0907-1.8532-0.28125-2.7188-3.1388-5.1614-11.836-4.0668-15.438 0.625zm7.7812-4.1071c1.8403 0 3.3438 2.2702 3.3438 4.6071 0 2.337-1.5034 4.2188-3.3438 4.2188-1.8403 0-3.3125-1.8818-3.3125-4.2188s1.4722-4.6071 3.3125-4.6071zm33.625 4.7009c-0.319 1.027-0.5 2.1367-0.5 3.2812 0 5.6696 4.2428 10.281 9.4688 10.281s9.4688-4.6117 9.4688-10.281c0-0.66509-0.076-1.308-0.1875-1.9375-5.9245-0.38392-12.676-4.7507-18.25-1.3438zm8.4637-2.8539c2.1539 0 4.4113 2.9234 4.4113 5.2602 0 2.3367-1.7524 4.2188-3.9062 4.2188-2.1539 0-3.9062-1.882-3.9062-4.2188 0-2.3367 1.2473-5.2602 3.4012-5.2602z"/>
      <path id="path3840" transform="translate(0 -5.7143)" d="m476.43 626.29c0 4.9311-55.485 8.9286-123.93 8.9286-68.444 0-123.93-3.9974-123.93-8.9286 0-4.9311 55.485-8.9286 123.93-8.9286 68.444 0 123.93 3.9975 123.93 8.9286z"/>
      <path id="path3842" fill="#666" d="m222.84 597.85c23.156 17.868 71.036 5.3157 92.112 25.203l76.84-0.55419c12.545-14.007 89.229-8.5699 91.37-24.649z"/>
      <path id="path3849" transform="matrix(1.0503 0 0 1 -17.223 -28.443)" fill="#e6e6e6" d="m476.43 626.29c0 4.9311-55.485 8.9286-123.93 8.9286-68.444 0-123.93-3.9974-123.93-8.9286 0-4.9311 55.485-8.9286 123.93-8.9286 68.444 0 123.93 3.9975 123.93 8.9286z"/>
      <path id="path3851" stroke-linejoin="round" d="m213.57 612.01s3.481-15.491 9.2857-20c8.7036-6.7605 21.515-6.9532 32.5-6.0714 12.987 1.0424 24.04 10.513 36.786 13.214 11.21 2.3756 22.919 3.9502 34.286 2.5 7.7302-0.98624 22.143-7.5 22.143-7.5" stroke="#f8fcca" stroke-linecap="round" stroke-width="5" fill="none"/>
      <path id="path3853" stroke-linejoin="round" d="m211.43 585.58s17.941 10.076 27.857 12.143c10.139 2.1138 20.779 1.1577 31.071 0 9.5854-1.0782 18.57-6.2541 28.214-6.4286 14.66-0.26525 28.582 7.2636 43.214 8.2143 10.234 0.66494 30.714-1.7857 30.714-1.7857" stroke="#f8fcca" stroke-linecap="round" stroke-width="5" fill="none"/>
      <path id="path3855" stroke-linejoin="round" d="m220 578.08s5.8099 8.393 10 11.071c7.7728 4.9687 17.206 8.0035 26.429 8.2143 10.825 0.2474 30-8.2143 31.429-8.2143 1.4286 0 22.113 2.8977 33.214 3.9286 8.7918 0.81644 17.657 0.77887 26.429 1.7857 9.5858 1.1002 19.022 3.2598 28.571 4.6429 6.5323 0.94615 15.714 3.2143 19.643 2.5 18.786-5.6585 62.906-9.2617 70 14.286 0.6354 2.5212-2.1429 7.5-2.1429 7.5" stroke="#f8fcca" stroke-linecap="round" stroke-width="5" fill="none"/>
      <path id="path3047" stroke-linejoin="round" d="m236.43 578.43s10.86-10.772 17.857-11.071c9.2022-0.39395 16.716 7.8096 24.643 12.5 5.0868 3.0099 8.8389 8.8823 14.643 10 6.4666 1.2454 12.81-3.0865 19.286-4.2857 8.7574-1.6218 17.718-5.7875 26.429-3.9286 6.4917 1.3855 11.217 7.102 16.786 10.714 5.2632 3.414 9.902 7.9963 15.714 10.357 7.636 3.1016 17.752-0.38092 24.286 4.6428 2.8281 2.1745 4.6429 9.6429 4.6429 9.6429" stroke="#f8fcca" stroke-linecap="round" stroke-width="5" fill="none"/>
      <path id="path3817" stroke-linejoin="round" d="m302.19 599.74s14.806-7.3947 22.857-8.5714c12.043-1.7602 24.387 4.2726 36.429 2.5 6.6719-0.98216 12.23-6.3613 18.929-7.1429 17.527-2.0449 35.528 1.9569 52.5 6.7857 12.196 3.47 22.411 12.372 34.643 15.714 8.5474 2.3359 26.429 2.8572 26.429 2.8572" stroke="#f8fcca" stroke-linecap="round" stroke-width="5" fill="none"/>
      <path id="path3819" stroke-linejoin="round" d="m227.28 574.05s11.386 6.2408 17.678 7.0711c9.9169 1.3087 19.862-4.6756 29.8-3.5355 12.804 1.4689 23.577 11.537 36.365 13.132 13.598 1.6955 40.911-4.0406 40.911-4.0406" stroke="#f8fcca" stroke-linecap="round" stroke-width="5" fill="none"/>
      <path id="path3821" stroke-linejoin="round" d="m241.93 593.75s13.068-7.0754 20.203-7.0711c13.205 0.008 24.177 13.544 37.376 13.132 14.252-0.44454 25.158-15.892 39.396-16.668 12.286-0.66891 23.172 8.8861 35.355 10.607 15.338 2.166 30.998 0.29951 46.467-0.50508 12.665-0.65873 25.344-5.4496 37.881-3.5355 9.9218 1.5148 20.816 4.3885 27.779 11.617 1.996 2.0719 3.0305 8.0812 3.0305 8.0812" stroke="#f8fcca" stroke-linecap="round" stroke-width="5" fill="none"/>
      <path id="path3823" stroke-linejoin="round" d="m202.54 600.82s9.7286-9.2208 15.657-12.122c11.554-5.6534 24.551-10.583 37.376-9.5964 8.9488 0.68846 15.969 8.7434 24.749 10.607 12.353 2.6215 25.349 2.0624 37.881 0.50507 10.375-1.2892 19.862-7.5824 30.305-8.0812 16.367-0.78173 32.142 9.2332 48.487 8.0812 10.039-0.70754 18.75-8.3964 28.789-9.0914 11.072-0.76653 21.781 4.509 32.83 5.5558 7.8794 0.74649 23.739 0.50508 23.739 0.50508" stroke="#f8fcca" stroke-linecap="round" stroke-width="5" fill="none"/>
      <path id="path3825" stroke-linejoin="round" d="m293.45 587.19s17.333-13.975 27.779-14.647c9.1439-0.58879 16.66 8.5163 25.759 9.5964 15.325 1.8193 31.098-9.7054 45.962-5.5558 7.6232 2.1282 11.533 11.264 18.688 14.647 9.8224 4.6449 20.956 7.2694 31.82 7.0711 8.0024-0.14611 23.234-6.0609 23.234-6.0609" stroke="#f8fcca" stroke-linecap="round" stroke-width="5" fill="none"/>
      <path id="path3827" stroke-linejoin="round" d="m282.84 586.68s8.3543-11.371 14.647-12.122c7.6261-0.90985 13.35 12.302 20.708 10.102 6.0029-1.7951 3.8596-13.643 9.5964-16.162 5.9862-2.6285 12.933 2.1554 19.193 4.0406 10.058 3.0291 20.7 5.576 29.294 11.617 3.1227 2.195 4.3784 6.5022 7.5762 8.5863 9.3229 6.0762 20.776 11.466 31.82 10.102 6.6772-0.82512 10.861-8.2755 17.173-10.607 7.1924-2.6565 22.728-3.5355 22.728-3.5355" stroke="#f8fcca" stroke-linecap="round" stroke-width="5" fill="none"/>
      <path id="path3829" stroke-linejoin="round" d="m414.67 569s-20.145 14.835-31.82 14.647c-10.54-0.16995-17.745-14.308-28.284-14.142-9.5657 0.1506-15.723 12.809-25.254 13.637-4.7736 0.41487-8.9723-3.4505-13.637-4.5457-9.434-2.2148-28.572 5.6475-28.789-4.0406-0.22674-10.102 23.25-13.25 29.8-5.5558 4.5221 5.3121-1.2668 15.828-7.0711 19.698-8.415 5.6111-30.305-1.5152-30.305-1.5152" stroke="#f8fcca" stroke-linecap="round" stroke-width="5" fill="none"/>
      <path id="path3831" stroke-linejoin="round" d="m406.08 589.21s16.69-14.656 26.769-14.142c9.0936 0.46404 13.81 13.317 22.728 15.152 6.3718 1.311 14.123 0.54087 19.193-3.5355 2.7049-2.1749 4.0406-9.5964 4.0406-9.5964" stroke="#f8fcca" stroke-linecap="round" stroke-width="5" fill="none"/>
      <path id="path3833" stroke-linejoin="round" d="m461.13 571.02s-27.812 10.432-42.426 11.617c-14.343 1.1627-29.35 0.21272-42.931-4.5457-6.7877-2.3782-10.991-11.722-18.183-11.617-9.5718 0.13992-14.931 12.411-23.739 16.162-15.038 6.4044-31.735 8.3233-47.982 10.102-15.9 1.7402-46.838-15.449-47.982 0.50508-0.86523 12.065 134.28-10.662 122.23-9.5964-35.397 3.1289-89.429 4.3628-49.497 15.152" stroke="#f8fcca" stroke-linecap="round" stroke-width="5" fill="none"/>
      <path id="path3835" stroke-linejoin="round" d="m294.29 577.01s11.053-17.409 19.643-16.786c8.8352 0.64097 9.1004 17.186 17.5 20 8.3019 2.7815 17.028-4.2554 25.714-5.3572 17.616-2.2346 44.596-18.026 53.214-2.5 2.9488 5.3126-4.6462 12.925-10.357 15-17.645 6.41-35.811-11.664-54.286-15-10.702-1.9324-31.86 7.9992-32.5-2.8571-0.515-8.7403 17.029-6.4654 25.714-5.3571 11.988 1.5298 20.436 16.788 32.5 16.071 9.7896-0.58149 14.836-16.121 24.643-16.071 12.448 0.0629 18.771 22.624 31.071 20.714 5.2728-0.81863 12.521-7.797 10-12.5-5.7588-10.744-25.431-2.0436-36.429 3.2143-8.2036 3.922-10.539 16.137-18.929 19.643-18.015 7.529-42.549 10.444-58.571-0.71429-8.9989-6.2667-15.817-20.516-11.786-30.714 3.2102-8.1204 15.074-13.438 23.571-11.429 8.1796 1.9347 7.3437 17.464 15.357 20 11.415 3.6132 22.321-10.252 34.286-10.714 7.4451-0.28784 15.038 1.8417 21.786 5 6.7714 3.1692 20.67 6.6443 17.857 13.571-11.821 29.114-65.048 1.7541-93.571-11.429-5.5829-2.5802-13.571-12.5-13.571-12.5" stroke="#f8fcca" stroke-linecap="round" stroke-width="5" fill="none"/>
      <path id="path3837" stroke-linejoin="round" d="m266.18 555.37s4.0129 15.835 10.607 17.173c6.2721 1.2724 9.4867-9.4142 15.657-11.112 14.168-3.8976 43.146-11.137 43.942 3.5355 1.2151 22.42-43.713 12.403-66.165 12.627-8.0263 0.0802-22.934 3.9457-23.739-4.0406-1.1215-11.137 20.768-8.3735 31.315-12.122 6.1706-2.193 12.242-7.2162 18.688-6.0609 4.0116 0.71895 10.966 3.7377 9.5964 7.5761-3.2824 9.1982-24.232 7.8466-29.294-0.50507-1.366-2.2535 3.5355-7.0711 3.5355-7.0711" stroke="#f8fcca" stroke-linecap="round" stroke-width="5" fill="none"/>
      <path id="path3839" stroke-linejoin="round" d="m367.19 556.88s-16.351 9.0485-25.254 11.617c-16.152 4.6595-46.564 23.021-50.003 6.566-2.9757-14.239 28.856-5.7275 41.921-12.122 4.1136-2.0132 6.5322-8.0191 11.112-8.0812 13.681-0.18569 20.158 23.361 33.84 23.234 13.034-0.12119 19.008-20.329 31.82-22.728 8.0271-1.5033 23.739 6.0609 23.739 6.0609" stroke="#f8fcca" stroke-linecap="round" stroke-width="5" fill="none"/>
      <path id="path3841" stroke-linejoin="round" d="m260.87 585.92s13.753-1.2201 20.456-2.7779c8.2972-1.9284 25.833 0.28752 24.244-8.0812-2.3438-12.34-36.327-10.473-37.628 2.0203-0.91178 8.7533 16.82 5.4048 25.506 6.8185 5.4108 0.88063 10.938 0.77752 16.415 1.0102 21.536 0.91471 48.225-12.444 64.65 1.5152 2.0883 1.7749 3.3691 6.0626 1.5152 8.0812-17.626 19.193-65.723 15.272-77.782-7.8287-3.1214-5.9797 13.438-11.966 9.849-17.678-6.7748-10.782-25.716 5.0916-38.133 2.2728-6.9448-1.5764-18.688-10.354-18.688-10.354" stroke="#f8fcca" stroke-linecap="round" stroke-width="5" fill="none"/>
    </g>
  </g>
  <metadata>
    <rdf:RDF>
      <cc:Work>
        <dc:format>image/svg+xml</dc:format>
        <dc:type rdf:resource="http://purl.org/dc/dcmitype/StillImage"/>
        <cc:license rdf:resource="http://creativecommons.org/licenses/publicdomain/"/>
        <dc:publisher>
          <cc:Agent rdf:about="http://openclipart.org/">
            <dc:title>Openclipart</dc:title>
          </cc:Agent>
        </dc:publisher>
        <dc:title>Spaghetti Cat</dc:title>
        <dc:date>2011-12-24T12:34:46</dc:date>
        <dc:description>TV, animal, black, cat, clip art, clipart, humor, meme, pasta, spaghetti, </dc:description>
        <dc:source>http://openclipart.org/detail/166528/spaghetti-cat-by-rones</dc:source>
        <dc:creator>
          <cc:Agent>
            <dc:title>rones</dc:title>
          </cc:Agent>
        </dc:creator>
        <dc:subject>
          <rdf:Bag>
            <rdf:li>TV</rdf:li>
            <rdf:li>animal</rdf:li>
            <rdf:li>black</rdf:li>
            <rdf:li>cat</rdf:li>
            <rdf:li>clip art</rdf:li>
            <rdf:li>clipart</rdf:li>
            <rdf:li>humor</rdf:li>
            <rdf:li>meme</rdf:li>
            <rdf:li>pasta</rdf:li>
            <rdf:li>spaghetti</rdf:li>
          </rdf:Bag>
        </dc:subject>
      </cc:Work>
      <cc:License rdf:about="http://creativecommons.org/licenses/publicdomain/">
        <cc:permits rdf:resource="http://creativecommons.org/ns#Reproduction"/>
        <cc:permits rdf:resource="http://creativecommons.org/ns#Distribution"/>
        <cc:permits rdf:resource="http://creativecommons.org/ns#DerivativeWorks"/>
      </cc:License>
    </rdf:RDF>
  </metadata>
</svg>
